<svg xmlns="http://www.w3.org/2000/svg" width="1200" height="720" viewBox="0 0 1200 720">
<rect width="1200" height="720" fill="#f8fafc"/>
<text x="56" y="72" font-family="Inter, Segoe UI, Arial, sans-serif" font-size="34" font-weight="850" fill="#102a43">ETL Python SQLite Pipeline</text>
<text x="56" y="108" font-family="Inter, Segoe UI, Arial, sans-serif" font-size="18" font-weight="500" fill="#52606d">Reproducible operations ETL with SQL summaries over synthetic support data.</text>
<rect x="56" y="142" width="250" height="108" rx="8" fill="#ffffff" stroke="#d9e2ec"/>
<rect x="56" y="142" width="6" height="108" rx="3" fill="#2563eb"/>
<text x="76" y="176" font-family="Inter, Segoe UI, Arial, sans-serif" font-size="15" font-weight="700" fill="#52606d">LOADED ROWS</text>
<text x="76" y="218" font-family="Inter, Segoe UI, Arial, sans-serif" font-size="30" font-weight="800" fill="#102a43">180</text>
<rect x="324" y="142" width="250" height="108" rx="8" fill="#ffffff" stroke="#d9e2ec"/>
<rect x="324" y="142" width="6" height="108" rx="3" fill="#059669"/>
<text x="344" y="176" font-family="Inter, Segoe UI, Arial, sans-serif" font-size="15" font-weight="700" fill="#52606d">REGIONS</text>
<text x="344" y="218" font-family="Inter, Segoe UI, Arial, sans-serif" font-size="30" font-weight="800" fill="#102a43">3</text>
<rect x="592" y="142" width="250" height="108" rx="8" fill="#ffffff" stroke="#d9e2ec"/>
<rect x="592" y="142" width="6" height="108" rx="3" fill="#d97706"/>
<text x="612" y="176" font-family="Inter, Segoe UI, Arial, sans-serif" font-size="15" font-weight="700" fill="#52606d">CHANNELS</text>
<text x="612" y="218" font-family="Inter, Segoe UI, Arial, sans-serif" font-size="30" font-weight="800" fill="#102a43">3</text>
<rect x="860" y="142" width="250" height="108" rx="8" fill="#ffffff" stroke="#d9e2ec"/>
<rect x="860" y="142" width="6" height="108" rx="3" fill="#7c3aed"/>
<text x="880" y="176" font-family="Inter, Segoe UI, Arial, sans-serif" font-size="15" font-weight="700" fill="#52606d">AVG CSAT</text>
<text x="880" y="218" font-family="Inter, Segoe UI, Arial, sans-serif" font-size="30" font-weight="800" fill="#102a43">4.00</text>
<rect x="56" y="286" width="520" height="360" rx="8" fill="#ffffff" stroke="#d9e2ec"/>
<text x="76" y="318" font-family="Inter, Segoe UI, Arial, sans-serif" font-size="18" font-weight="800" fill="#102a43">Synthetic data preview</text>
<text x="76" y="359" font-family="Inter, Segoe UI, Arial, sans-serif" font-size="15" font-weight="600" fill="#334e68">EU/email</text>
<rect x="246" y="344" width="310" height="88" rx="5" fill="#2563eb"/>
<text x="566" y="359" font-family="Inter, Segoe UI, Arial, sans-serif" font-size="14" font-weight="700" fill="#52606d">0.828</text>
<text x="76" y="461" font-family="Inter, Segoe UI, Arial, sans-serif" font-size="15" font-weight="600" fill="#334e68">LATAM/voice</text>
<rect x="246" y="446" width="303" height="88" rx="5" fill="#059669"/>
<text x="559" y="461" font-family="Inter, Segoe UI, Arial, sans-serif" font-size="14" font-weight="700" fill="#52606d">0.81</text>
<text x="76" y="563" font-family="Inter, Segoe UI, Arial, sans-serif" font-size="15" font-weight="600" fill="#334e68">North_America/chat</text>
<rect x="246" y="548" width="308" height="88" rx="5" fill="#d97706"/>
<text x="564" y="563" font-family="Inter, Segoe UI, Arial, sans-serif" font-size="14" font-weight="700" fill="#52606d">0.823</text>
<rect x="616" y="286" width="528" height="360" rx="8" fill="#111827" stroke="#1f2937"/>
<text x="636" y="320" font-family="Inter, Segoe UI, Arial, sans-serif" font-size="18" font-weight="800" fill="#d1fae5">Demo output</text>
<text x="636" y="356" font-family="Cascadia Mono, Consolas, monospace" font-size="16" fill="#e5e7eb">python src/etl_pipeline.py</text>
<text x="636" y="381" font-family="Cascadia Mono, Consolas, monospace" font-size="16" fill="#e5e7eb">Loaded 180 clean rows into outputs/operations.sqlite</text>
<text x="636" y="406" font-family="Cascadia Mono, Consolas, monospace" font-size="16" fill="#e5e7eb">Summary SQL groups region and channel by CSAT and resolution rate.</text>
<text x="636" y="431" font-family="Cascadia Mono, Consolas, monospace" font-size="16" fill="#e5e7eb">Designed as a small, repeatable ETL artifact for recruiters.</text>
<text x="56" y="686" font-family="Inter, Segoe UI, Arial, sans-serif" font-size="15" font-weight="600" fill="#52606d">README demo asset generated from repository code/data. Sample data is synthetic.</text>
</svg>
